PathFileType	4	(X/Y/Z)	C:\Users\Basilio\Documents\Thesis Gigler\squatting_fais\c3dfiles\058\SJ_pre1\markers_experimental.trc
DataRate	CameraRate	NumFrames	NumMarkers	Units	OrigDataRate	OrigDataStartFrame	OrigNumFrames
200.000000	200.000000	4	61	mm	200.000000	589	1573
Frame#	Time	FHD			LBHD			RBHD			C7			T10			CLAV			LSHO			LUUPA			LMUPA			LDUPA			LLEP			LMEP			LRAD			LUL			LRFIN			RSHO			RUPA1			RMUPA			RDUPA			RLEP			RMEP			RRAD			RUL			RUFIN			LASI			RASI			USACR			LSACR			RSACR			LTHI1			LTHI2			LTHI3			LTHI4			LLFC			LMFC			LTIB1			LTIB2			LTIB3			LTIB4			LLMAL			LMMAL			LHEE			LMT1			LMT2			LMT5			RTHI			RTHI2			RTHI3			RTHI4			RLFC			RMFC			RTIB1			RTIB2			RTIB3			RTIB4			RLMAL			RMMAL			RHEE			RMT1			RMT2			RMT5			
		X1	Y1	Z1	X2	Y2	Z2	X3	Y3	Z3	X4	Y4	Z4	X5	Y5	Z5	X6	Y6	Z6	X7	Y7	Z7	X8	Y8	Z8	X9	Y9	Z9	X10	Y10	Z10	X11	Y11	Z11	X12	Y12	Z12	X13	Y13	Z13	X14	Y14	Z14	X15	Y15	Z15	X16	Y16	Z16	X17	Y17	Z17	X18	Y18	Z18	X19	Y19	Z19	X20	Y20	Z20	X21	Y21	Z21	X22	Y22	Z22	X23	Y23	Z23	X24	Y24	Z24	X25	Y25	Z25	X26	Y26	Z26	X27	Y27	Z27	X28	Y28	Z28	X29	Y29	Z29	X30	Y30	Z30	X31	Y31	Z31	X32	Y32	Z32	X33	Y33	Z33	X34	Y34	Z34	X35	Y35	Z35	X36	Y36	Z36	X37	Y37	Z37	X38	Y38	Z38	X39	Y39	Z39	X40	Y40	Z40	X41	Y41	Z41	X42	Y42	Z42	X43	Y43	Z43	X44	Y44	Z44	X45	Y45	Z45	X46	Y46	Z46	X47	Y47	Z47	X48	Y48	Z48	X49	Y49	Z49	X50	Y50	Z50	X51	Y51	Z51	X52	Y52	Z52	X53	Y53	Z53	X54	Y54	Z54	X55	Y55	Z55	X56	Y56	Z56	X57	Y57	Z57	X58	Y58	Z58	X59	Y59	Z59	X60	Y60	Z60	X61	Y61	Z61	

590	2.945	55.99451065063478	1255.845581054688	-834.2071533203127	-108.2334213256836	1219.762817382813	-902.6858520507815	62.86816787719728	1262.594604492188	-976.4883422851565	-147.7304077148438	1144.0556640625	-925.281677246094	-382.3336791992188	955.748474121094	-906.8453369140627	-58.00681686401369	1002.9912109375	-903.8088378906252	-24.85668373107911	1036.754638671875	-1069.96533203125	-185.3013305664063	1031.699829101563	-1241.969482421875	-196.963607788086	982.3811035156252	-1242.87451171875	-241.1883392333985	1005.422546386719	-1276.72802734375	-318.8519897460938	977.1514892578127	-1307.15673828125	-362.6284179687501	1023.856811523438	-1264.191162109375	-448.6153259277345	841.9086914062502	-1105.330078125	-382.6897277832032	808.8967285156252	-1088.235107421875	-455.8498840332032	777.6026611328127	-1156.112915039063	-36.82905578613282	1069.745727539063	-742.0685424804689	-204.9481658935547	1078.079345703125	-585.9440917968751	-216.8111267089844	1028.684936523438	-583.5950317382814	-259.8436889648438	1049.51611328125	-548.8173828125001	-325.2191467285157	1035.776611328125	-516.8508300781251	-383.8205871582032	1066.476806640625	-578.5043334960939	-422.3458862304689	846.487731933594	-689.5559692382814	-414.3726501464845	795.6040039062502	-627.1807250976564	-368.7220764160157	797.8547363281252	-717.8618774414064	-384.096160888672	697.0056152343751	-1016.785095214844	-374.8093872070313	709.3266601562501	-780.9375000000002	-488.393280029297	871.2447509765627	-891.9580688476565	-515.6411132812501	851.2639770507815	-918.4119262695315	-514.3372802734376	852.019226074219	-861.0911254882815	-338.4856262207032	614.3137207031251	-1149.935424804688	-258.9542236328126	592.2194213867189	-1172.090209960938	-226.5216369628907	621.2814941406251	-1148.546630859375	-236.9425048828126	535.0532836914064	-1181.519409179688	-170.6360321044922	474.0717163085939	-1186.509887695313	-131.8527069091797	463.0486755371095	-1072.202392578125	-140.784652709961	336.0582275390626	-1160.357421875	-214.9417877197266	330.0012817382813	-1205.82373046875	-179.6360015869141	306.5001831054688	-1187.757568359375	-219.3731994628907	236.1649932861329	-1156.9345703125	-356.8372497558594	89.09988403320314	-1152.780883789063	-321.1748962402344	96.37561798095706	-1069.512817382813	-420.9454956054689	50.5902671813965	-1096.693359375	-196.7740173339844	62.40088272094728	-1115.405395507813	-198.9257202148438	59.56905746459962	-1162.57177734375	-253.6620025634766	35.21398925781251	-1209.881958007813	-416.7357482910157	625.3582153320314	-660.2929077148439	-351.5488891601563	626.7249145507814	-648.4315795898439	-331.3411560058594	651.6224365234376	-654.4868774414064	-303.0143127441407	558.9987182617189	-636.7556762695314	-178.4899139404297	467.832000732422	-617.8490600585939	-131.8268432617188	454.7656555175782	-739.3146362304689	-180.8833770751953	279.0057678222657	-689.5022583007814	-254.827621459961	228.5767211914063	-623.3197021484376	-223.4193572998047	209.3734741210938	-652.0150756835939	-246.4143676757813	170.3427886962891	-686.7185668945314	-346.5721130371094	93.2375946044922	-645.6479492187501	-305.3771667480469	98.90790557861331	-729.6641845703126	-411.2350463867189	51.0711135864258	-707.4776000976564	-195.822250366211	55.81343841552736	-669.8240356445314	-205.3188476562501	61.86022949218751	-617.8695068359376	-256.2581481933594	26.8696460723877	-573.8156738281251	
591	2.95	56.39126205444337	1253.781005859375	-834.3392333984377	-108.045768737793	1217.4970703125	-902.727966308594	63.0804901123047	1260.307861328125	-976.670837402344	-146.9650268554688	1142.704223632813	-925.3925781250002	-382.1937866210938	953.9973144531252	-906.9580078125002	-57.96683502197267	1001.329345703125	-903.7598266601565	-24.44468688964844	1034.464477539063	-1070.089599609375	-184.9120483398438	1029.789306640625	-1242.143188476563	-196.4744262695313	980.489685058594	-1242.982421875	-240.7569122314454	1003.586608886719	-1276.809204101563	-318.4176635742188	975.107116699219	-1307.29541015625	-362.3658752441407	1021.919860839844	-1264.344970703125	-448.2564697265626	840.123474121094	-1105.380249023438	-382.2791442871094	806.9983520507815	-1088.292724609375	-455.705780029297	775.8161621093752	-1156.122436523438	-36.47138977050782	1067.55224609375	-741.9907226562501	-204.6363372802735	1076.387084960938	-586.1232910156251	-216.5094299316407	1026.748657226563	-583.6422119140626	-259.3518981933594	1047.885498046875	-548.9229736328126	-325.2113342285157	1034.13037109375	-516.7310791015626	-383.6633605957032	1064.69775390625	-578.5032348632814	-422.028778076172	844.7751464843752	-689.6439208984376	-413.9812622070314	794.0149536132815	-627.3593750000001	-368.5167236328126	796.169372558594	-717.9349365234376	-383.6113586425782	694.6462402343751	-1015.686706542969	-375.2500000000001	707.9409179687501	-779.8735351562502	-488.3940429687501	869.4046630859377	-892.017272949219	-515.4119873046876	849.4261474609377	-918.5083618164065	-514.3443603515626	850.4124145507815	-861.1276855468752	-338.0002746582032	613.3220825195314	-1149.674926757813	-257.9438781738282	591.5812988281251	-1171.673950195313	-226.0202331542969	620.5534667968751	-1148.025024414063	-236.0136413574219	534.2198486328126	-1181.084716796875	-169.8206939697266	474.0681457519532	-1185.942626953125	-131.0259552001953	462.6566162109376	-1071.7119140625	-140.0204772949219	336.1945495605469	-1160.245239257813	-214.1944732666016	329.7138977050782	-1205.302490234375	-180.0208282470703	306.3913574218751	-1186.905029296875	-218.6863403320313	235.9459075927735	-1156.521850585938	-356.6968994140626	89.12466430664064	-1152.6904296875	-321.0362243652344	96.233268737793	-1069.360717773438	-420.8120117187501	50.61938858032228	-1096.6669921875	-196.6868286132813	62.33868408203126	-1115.389526367188	-199.3836517333985	59.90288162231447	-1162.345581054688	-253.5637664794922	35.24536514282227	-1209.869018554688	-416.858123779297	624.2504882812501	-660.0161132812501	-351.4189758300782	625.7321777343751	-648.8038330078126	-331.3498229980469	650.4226074218751	-654.7604980468751	-302.8173522949219	558.2486572265626	-637.1331787109376	-177.7365417480469	467.2774658203126	-618.1865844726564	-131.1819152832032	454.3134155273439	-739.7022705078126	-180.3554229736328	278.8290710449219	-689.9523315429689	-254.3738708496094	228.5245513916016	-623.6058349609376	-223.0491027832032	208.9545593261719	-652.3596191406251	-246.2298736572266	170.2270202636719	-686.9969482421876	-346.3201293945313	93.34649658203126	-645.9300537109376	-305.1401062011719	98.76674652099612	-729.9334106445314	-411.1985168457032	51.050106048584	-707.6343383789064	-195.8473052978516	55.49641799926759	-669.8718261718751	-205.2479095458985	61.87565231323244	-617.8630371093751	-256.2322387695313	26.92679405212403	-573.8704833984376	
592	2.955	56.8252410888672	1251.68212890625	-834.7739868164065	-108.1786041259766	1215.55615234375	-902.6885375976565	63.1831741333008	1258.291870117188	-976.9373168945315	-146.891357421875	1140.490478515625	-925.4299316406252	-381.9695739746094	952.1503906250002	-907.0432128906252	-57.49169921875001	999.0032958984377	-903.8258056640627	-24.00374221801759	1032.526000976563	-1070.109497070313	-184.5620880126953	1027.720092773438	-1242.152954101563	-196.1950225830079	978.4852294921877	-1243.062622070313	-240.5648803710938	1001.458557128906	-1276.919067382813	-318.1027221679688	973.341735839844	-1307.417358398438	-361.7588806152344	1020.030334472656	-1264.5029296875	-448.1358337402345	838.302917480469	-1105.464111328125	-382.0578002929688	805.101013183594	-1088.360229492188	-455.2610473632814	774.0317993164065	-1156.126831054688	-36.42699050903321	1065.495361328125	-741.8374633789064	-204.3651580810547	1074.572875976563	-586.2090454101564	-216.104232788086	1025.015258789063	-583.5586547851564	-259.1692199707032	1046.137451171875	-548.9368896484376	-324.8978271484376	1032.368286132813	-516.9221801757814	-383.3098144531251	1063.17626953125	-578.6134643554689	-421.9685058593751	843.126159667969	-689.6179809570314	-414.1812744140626	792.3762817382815	-627.2088623046876	-368.4159851074219	794.4024047851565	-717.9713745117189	-383.7144165039063	692.9607543945314	-1015.940979003906	-375.6450805664063	705.7709960937501	-780.1070556640627	-488.1925659179689	867.7766723632815	-892.2131958007815	-515.2174682617189	847.922058105469	-918.5545043945315	-514.3411254882814	848.7099609375002	-861.2283935546877	-337.2038879394532	612.1487426757814	-1149.427856445313	-257.3890075683594	590.8704833984376	-1171.100463867188	-225.3864288330079	619.6401367187501	-1147.38623046875	-235.0581970214844	533.6812744140626	-1180.577880859375	-168.5282135009766	473.5627441406251	-1185.432373046875	-129.9290466308594	461.7725219726564	-1071.006225585938	-139.3164825439453	335.2687683105469	-1159.8134765625	-213.3023223876954	329.3056640625001	-1204.856689453125	-179.3692932128907	305.9821777343751	-1186.44775390625	-218.119125366211	235.4882049560547	-1156.003173828125	-356.5598449707032	89.13294219970705	-1152.5634765625	-320.8346862792969	96.1480407714844	-1069.132446289063	-420.8325195312501	50.69534301757814	-1096.601806640625	-196.5214385986329	62.36264038085939	-1115.420043945313	-198.8438262939454	59.51937484741212	-1162.453369140625	-253.6279449462891	35.28157806396485	-1209.807250976563	-416.532196044922	622.8916625976564	-660.4034423828126	-351.2729492187501	624.4777832031251	-649.0588989257814	-331.0853576660157	649.3920898437501	-655.1619873046876	-302.2867126464844	557.2877197265626	-637.5288696289064	-177.3588409423828	466.777313232422	-618.5851440429689	-130.6083374023438	453.8681030273439	-740.0238037109376	-179.8379821777344	278.6279602050782	-690.2603759765626	-253.5951690673829	228.3211669921876	-623.9627075195314	-222.6769714355469	208.8164367675782	-652.6377563476564	-245.9337310791016	170.0070190429688	-687.3351440429689	-346.2507629394532	93.43356323242189	-646.2148437500001	-305.0250854492188	98.62165832519534	-730.2981567382814	-411.1230773925782	51.15655899047853	-707.7530517578126	-195.8095397949219	55.34083938598634	-669.9077148437501	-205.2209167480469	61.8750343322754	-617.9232177734376	-256.2482910156251	27.03609466552735	-573.9332275390626	
593	2.96	56.91497802734376	1250.006469726563	-834.7452392578127	-107.9900588989258	1213.375122070313	-902.8332519531252	63.42165374755861	1256.326416015625	-977.1158447265627	-146.5519561767578	1138.5078125	-925.5058593750002	-381.8911132812501	950.4538574218752	-907.202331542969	-57.06854629516603	996.9721679687502	-903.8719482421877	-23.6379680633545	1030.6826171875	-1070.0771484375	-184.2947540283203	1025.670043945313	-1242.228881835938	-195.9530181884766	976.4358520507815	-1243.080932617188	-240.3163299560547	999.5820312500002	-1277.034423828125	-317.4811096191407	970.5037231445315	-1308.124633789063	-361.5730895996094	1018.02099609375	-1264.559204101563	-447.5852661132814	836.6692504882815	-1105.66796875	-382.2238159179688	803.4133911132815	-1088.538940429688	-455.0838317871095	772.302917480469	-1156.285766601563	-36.32983398437501	1063.7978515625	-741.8822021484376	-204.4647979736329	1072.906982421875	-586.0899047851564	-216.2325439453126	1023.675048828125	-583.4967041015626	-259.0363159179688	1044.682250976563	-548.7859497070314	-324.6672363281251	1030.796997070313	-517.1631469726564	-383.1685180664063	1061.540893554688	-578.6636962890626	-421.9905395507814	841.7045898437502	-689.7199707031251	-413.9615478515626	790.9464111328127	-627.2668457031251	-368.3633422851563	793.1102294921877	-718.0283203125001	-383.4160461425782	691.6716308593751	-1016.430480957031	-374.4037780761719	704.7042846679689	-780.6590576171877	-488.0402832031251	866.2052001953127	-892.4031982421877	-515.1879882812501	846.144714355469	-918.5970458984377	-514.0592041015626	846.9932250976565	-861.3260498046877	-336.3402709960938	611.2539672851564	-1149.222778320313	-256.8434448242188	589.7832641601564	-1170.785888671875	-224.6370544433594	618.8293457031251	-1146.80615234375	-234.1400909423829	532.9073486328126	-1180.1328125	-167.5478210449219	473.1593017578126	-1185.019775390625	-129.2166900634766	461.3348693847657	-1070.404296875	-138.4075775146485	334.2221069335938	-1158.630249023438	-212.3745422363282	328.9725341796876	-1204.490844726563	-177.5767517089844	305.2293090820313	-1186.18408203125	-217.6080017089844	235.0851287841797	-1155.513916015625	-356.3555603027344	89.14051818847658	-1152.478149414063	-320.7111206054688	95.98717498779298	-1068.94189453125	-420.7766418457032	50.70217132568361	-1096.577026367188	-196.5004577636719	62.30214309692384	-1115.31640625	-198.7942352294922	59.51787185668947	-1162.424072265625	-253.632553100586	35.29697036743165	-1209.755126953125	-416.5639648437501	621.5897216796876	-660.4503173828126	-351.1140441894532	623.7086791992189	-649.1702270507814	-331.1286010742188	648.4900512695314	-655.5258789062501	-301.6805419921876	556.1916503906251	-637.9150390625001	-176.831771850586	466.4965209960939	-618.8712158203126	-130.063720703125	453.440887451172	-740.4616088867189	-179.417709350586	278.4700012207032	-690.6326293945314	-253.2396087646485	228.1711730957032	-624.2659301757814	-222.2456665039063	208.6704254150391	-653.0595703125001	-245.7974243164063	170.025131225586	-687.6911010742189	-346.1268310546876	93.59951782226564	-646.4695434570314	-304.8167724609376	98.59797668457034	-730.6363525390626	-410.8289489746095	51.33286285400392	-708.0595092773439	-195.785140991211	55.22217559814455	-670.0110473632814	-205.0647888183594	61.88482666015626	-618.1133422851564	-256.2165527343751	27.12878036499024	-574.0302734375001	
